<svg xmlns="http://www.w3.org/2000/svg" viewBox="83.9931 78.333 853.3 860.3">
  <path d="M 744.727 450.484 v -54.846 h -54.846 l -216.669 216.669 l -100.305 -100.305 h -54.846 v 54.846 l 127.728 127.728 h 54.846 l 244.092 -244.092 z M 512 162.911 c -192.485 0 -349.091 156.606 -349.091 349.091 s 156.606 349.091 349.091 349.091 c 192.485 0 349.091 -156.606 349.091 -349.091 s -156.606 -349.091 -349.091 -349.091 v 0 z M 512 938.669 c -235.268 0 -426.667 -191.399 -428 -433.669 s 191.399 -426.667 426.667 -426.667 c 235.268 0 426.667 191.399 426.667 426.667 s -191.399 426.667 -426.667 426.667 v 0 z" fill="#00a49f"/>
</svg>